<mxfile host="www.draw.io" modified="2019-12-08T20:22:53.168Z" agent="Mozilla/5.0 (Macintosh; Intel Mac OS X 10_13_6) AppleWebKit/537.36 (KHTML, like Gecko) Chrome/78.0.3904.108 Safari/537.36" etag="m4hlMBu7-YIp0sQPYRbS" version="12.3.8" type="github" pages="1">
  <diagram id="KjCLcr777CeXuh56Vzgp" name="Page-1">
    <mxGraphModel dx="526" dy="341" grid="1" gridSize="10" guides="1" tooltips="1" connect="1" arrows="1" fold="1" page="1" pageScale="1" pageWidth="850" pageHeight="1100" math="0" shadow="0">
      <root>
        <mxCell id="0"/>
        <mxCell id="1" parent="0"/>
        <mxCell id="Z58XzRF4joGfe4loIMfG-18" value="" style="verticalLabelPosition=bottom;verticalAlign=top;html=1;shape=mxgraph.infographic.shadedCube;isoAngle=15;fillColor=#6CB3A6;strokeColor=none;rotation=-115;" parent="1" vertex="1">
          <mxGeometry x="61" y="111" width="90" height="100" as="geometry"/>
        </mxCell>
        <mxCell id="l-CDvTGbUFodCzUKEkij-2" value="Intuition&lt;br style=&quot;font-size: 27px;&quot;&gt;Machine" style="text;html=1;align=center;verticalAlign=middle;resizable=0;points=[];;autosize=1;fontSize=27;fontStyle=1;fontFamily=Lucida Console;fontColor=#497A71;" vertex="1" parent="1">
          <mxGeometry x="151" y="125" width="120" height="70" as="geometry"/>
        </mxCell>
        <mxCell id="Z58XzRF4joGfe4loIMfG-17" value="" style="verticalLabelPosition=bottom;verticalAlign=top;html=1;shape=mxgraph.infographic.shadedCube;isoAngle=15;fillColor=#67AB9F;strokeColor=none;rotation=65;" parent="1" vertex="1">
          <mxGeometry x="80" y="131" width="48" height="58" as="geometry"/>
        </mxCell>
      </root>
    </mxGraphModel>
  </diagram>
</mxfile>
